<svg xmlns="http://www.w3.org/2000/svg" xmlns:xlink="http://www.w3.org/1999/xlink" version="1.1" width="960pt" height="540pt" viewBox="0 0 960 540">
<defs>
<clipPath id="clip_0">
<path transform="matrix(1,0,0,-1,0,540)" d="M0 .00001206994H959.76V540H0Z"/>
</clipPath>
</defs>
<g clip-path="url(#clip_0)">
<path transform="matrix(1,0,0,-1,0,540)" d="M0 540H959.76V.00001206994H0Z" fill="#ffffff"/>
</g>
<path transform="matrix(1,0,0,-1,0,540)" d="M0 540H960V.0000140816H0Z" fill="#ffffff"/>
<path transform="matrix(.00007874016,0,0,.00007874016,334.5695,12.297302)" stroke-width="19050" stroke-linecap="butt" stroke-miterlimit="8" stroke-linejoin="miter" fill="none" stroke="#000000" d="M0 0H914400V292387H0Z"/>
<text xml:space="preserve" transform="matrix(.24 0 -0 .24 341.7695 569.04)" font-size="54.16666" font-family="ArialMT"><tspan y="-2250" x="0 30.20875 60.4175 87.50083 117.70959">Local</tspan></text>
<text xml:space="preserve" transform="matrix(.24 0 -0 .24 376.5194 569.04)" font-size="54.16666" font-family="ArialMT"><tspan y="-2250" x="0 35.939584 47.937498 63.02291">Site</tspan></text>
<text xml:space="preserve" transform="matrix(.24 0 -0 .24 587.9633 566.88)" font-size="75" font-family="Calibri"><tspan y="-2250" x="0">&#x2026;</tspan></text>
<path transform="matrix(0,-.00007874016,.00007874016,0,370.5694,35.320009)" stroke-width="19050" stroke-linecap="butt" stroke-miterlimit="8" stroke-linejoin="miter" fill="none" stroke="#000000" d="M0 0H-228600V3709736H13019"/>
<path transform="matrix(1,0,0,-1,0,540)" d="M172.4833 364.5847 172.4834 299.3065H170.9834L170.9833 364.5847ZM171.7334 299.3065 176.7334 303.3065 171.7334 293.3065 166.7334 303.3065Z"/>
<path transform="matrix(1,0,0,-1,0,540)" d="M517.3721 504.0317V452.9457H171.7334L172.4834 453.6957V409.3598H170.9834V454.4457H516.6221L515.8721 453.6957V504.0317ZM171.7334 409.3598 176.7334 413.3598 171.7334 403.3598 166.7334 413.3598Z"/>
<path transform="matrix(.00007874016,0,0,.00007874016,480.622,12.945679)" stroke-width="19050" stroke-linecap="butt" stroke-miterlimit="8" stroke-linejoin="miter" fill="none" stroke="#000000" d="M0 0H914400V292388H0Z"/>
<text xml:space="preserve" transform="matrix(.24 0 -0 .24 499.997 569.76)" font-size="54.16666" font-family="ArialMT"><tspan y="-2250" x="0 35.939584 47.937498 63.02291 93.22083 108.30625">Site 2</tspan></text>
<path transform="matrix(.00007874016,0,0,.00007874016,626.6746,11.272095)" stroke-width="19050" stroke-linecap="butt" stroke-miterlimit="8" stroke-linejoin="miter" fill="none" stroke="#000000" d="M0 0H914400V292388H0Z"/>
<text xml:space="preserve" transform="matrix(.24 0 -0 .24 645.3621 568.08)" font-size="54.16666" font-family="ArialMT"><tspan y="-2250" x="0 35.939584 47.937498 63.02291 93.22083 108.30625">Site K</tspan></text>
<path transform="matrix(.00007874016,0,0,.00007874016,98.11717,246.69351)" stroke-width="19050" stroke-linecap="butt" stroke-miterlimit="8" stroke-linejoin="miter" fill="none" stroke="#000000" d="M0 0H1869850V492443H0Z"/>
<text xml:space="preserve" transform="matrix(.24 0 -0 .24 110.0458 803.52)" font-size="54.16666" font-family="Arial" font-weight="bold"><tspan y="-2250" x="0 45.310415 78.649997 111.98958 145.32917 160.41458 190.61249 205.6979">Module 2</tspan></text>
<text xml:space="preserve" transform="matrix(.24 0 -0 .24 166.6708 803.52)" font-size="54.16666" font-family="ArialMT"><tspan y="-2250" x="0 15.101667 30.203335 63.559167 93.77333 123.9875 154.20168 172.445 202.65918 217.76085 247.97502 278.18919">: Federated </tspan></text>
<text xml:space="preserve" transform="matrix(.24 0 -0 .24 105.4208 818.4)" font-size="54.16666" font-family="ArialMT"><tspan y="-2250" x="0 27.08333 57.29208 75.51916 87.500827 117.70958 147.91834 159.9 190.10875 205.21042 220.31209 238.53917 268.7479 298.95664 326.03999 341.14164 371.35038 389.57746 434.88786 465.0966 480.19825 492.1799 522.3887">variable transformation</tspan></text>
<path transform="matrix(1,0,0,-1,0,540)" d="M245.3494 384.7222 277.4713 384.7221V383.2221L245.3494 383.2222ZM277.4713 383.9721 273.4713 388.9722 283.4713 383.9721 273.4712 378.9722Z"/>
<path transform="matrix(.00007874016,0,0,.00007874016,98.11717,136.6402)" stroke-width="19050" stroke-linecap="butt" stroke-miterlimit="8" stroke-linejoin="miter" fill="none" stroke="#000000" d="M0 0H1869850V492443H0Z"/>
<text xml:space="preserve" transform="matrix(.24 0 -0 .24 110.0458 693.36)" font-size="54.16666" font-family="Arial" font-weight="bold"><tspan y="-2250" x="0 45.310415 78.649997 111.98958 145.32917 160.41458 190.61249 205.6979">Module 1</tspan></text>
<text xml:space="preserve" transform="matrix(.24 0 -0 .24 166.6708 693.36)" font-size="54.16666" font-family="ArialMT"><tspan y="-2250" x="0 15.101667 30.203335 63.559167 93.77333 123.9875 154.20168 172.445 202.65918 217.76085 247.97502 278.18919">: Federated </tspan></text>
<text xml:space="preserve" transform="matrix(.24 0 -0 .24 125.7358 708.48)" font-size="54.16666" font-family="ArialMT"><tspan y="-2250" x="0 27.08333 57.29208 75.51916 87.500827 117.70958 147.91834 159.9 190.10875 205.21042 223.43752 253.64627 283.855 310.93836 322.92 353.12876">variable ranking</tspan></text>
<path transform="matrix(.00007874016,0,0,.00007874016,802.9834,247.9053)" stroke-width="19050" stroke-linecap="butt" stroke-miterlimit="8" stroke-linejoin="miter" fill="none" stroke="#000000" d="M0 0H1869850V492443H0Z"/>
<text xml:space="preserve" transform="matrix(.24 0 -0 .24 826.9121 804.72)" font-size="54.16666" font-family="Arial" font-weight="bold"><tspan y="-2250" x="0 45.310415 78.649997 111.98958 145.32917 160.41458 190.61249 205.6979">Module 4</tspan></text>
<text xml:space="preserve" transform="matrix(.24 0 -0 .24 883.5371 804.72)" font-size="54.16666" font-family="ArialMT"><tspan y="-2250" x="0 15.101667 30.203335 75.53 105.74417 135.95835 166.17252 178.1325">: Model </tspan></text>
<text xml:space="preserve" transform="matrix(.24 0 -0 .24 850.9121 819.6)" font-size="54.16666" font-family="ArialMT"><tspan y="-2250" x="0 27.08333 57.29208 69.27374 99.4825 126.56583 141.6675 153.64916 183.85791">selection</tspan></text>
<path transform="matrix(.00007874016,0,0,.00007874016,443.0057,490.9395)" stroke-width="19050" stroke-linecap="butt" stroke-miterlimit="8" stroke-linejoin="miter" fill="none" stroke="#000000" d="M0 0H1869850V492443H0Z"/>
<text xml:space="preserve" transform="matrix(.24 0 -0 .24 450.9969 1047.84)" font-size="54.16666" font-family="Arial" font-weight="bold"><tspan y="-2250" x="0 45.310415 78.649997 111.98958 145.32917 160.41458 190.61249 205.6979">Module 5</tspan></text>
<text xml:space="preserve" transform="matrix(.24 0 -0 .24 507.6219 1047.84)" font-size="54.16666" font-family="ArialMT"><tspan y="-2250" x="0 15.101667 30.203335 63.559167 75.51917 105.73334 135.94751 147.9075 163.00917 208.33585 238.55002 268.7642 298.97837 310.93836">: Final model </tspan></text>
<text xml:space="preserve" transform="matrix(.24 0 -0 .24 486.9319 1062.72)" font-size="54.16666" font-family="ArialMT"><tspan y="-2250" x="0 30.20875 57.29208 87.50083 99.4825 129.69126 159.90001 175.00168 186.98334 217.1921">evaluation</tspan></text>
<path transform="matrix(.00007874016,0,0,.00007874016,442.7637,448.09877)" stroke-width="19050" stroke-linecap="butt" stroke-miterlimit="8" stroke-linejoin="miter" fill="none" stroke="#000000" d="M0 0H1869850V292388H0Z"/>
<text xml:space="preserve" transform="matrix(.24 0 -0 .24 476.6298 1004.88)" font-size="54.16666" font-family="ArialMT"><tspan y="-2250" x="0 39.065 81.25 120.315 135.41667 165.62543 195.83419 226.04294 238.0246 265.10795 292.19129 304.17295">ROC analysis</tspan></text>
<path transform="matrix(.00007874016,0,0,.00007874016,280.6838,110.98111)" stroke-width="19050" stroke-linecap="butt" stroke-miterlimit="8" stroke-linejoin="miter" fill="none" stroke="#000000" d="M0 0H5992821V3970318H0Z"/>
<text xml:space="preserve" transform="matrix(.24 0 -0 .24 407.1216 668.4)" font-size="54.16666" font-family="Arial" font-weight="bold"><tspan y="-2250" x="0 45.310415 78.649997 111.98958 145.32917 160.41458 190.61249 205.6979">Module 3</tspan></text>
<text xml:space="preserve" transform="matrix(.24 0 -0 .24 463.7466 668.4)" font-size="54.16666" font-family="ArialMT"><tspan y="-2250" x="0 15.101666 30.203333 63.5375 93.746257 123.95501 154.16376 172.39086 202.59961 217.70128 247.91004 278.11878 293.22044 320.30378 347.38713 377.59587 395.82295 426.03169 441.13334 471.34208 501.5508 519.7779 531.7596 558.8429 589.05166 604.1533 616.135 646.34378">: Federated score derivation</tspan></text>
<path transform="matrix(1,0,0,-1,0,540)" d="M242.3919 274.2326 274.7002 273.5785 274.6698 272.0788 242.3615 272.7329ZM274.685 272.8286 270.787 277.9086 280.6838 272.7072 270.5846 267.9106Z"/>
<path transform="matrix(1,0,0,-1,0,540)" d="M589.996 79.63993H877.3496V247.3197H875.8496V80.38993L876.5996 81.13993H589.996ZM876.5996 247.3197 881.5996 243.3197 876.5996 253.3197 871.5996 243.3197Z"/>
<path transform="matrix(1,0,0,-1,0,540)" d="M802.9834 273.4572 758.5594 273.4571V271.9571L802.9834 271.9572ZM758.5594 272.7071 762.5594 277.7071 752.5594 272.7071 762.5594 267.7071Z"/>
<path transform="matrix(1,0,0,-1,0,540)" d="M515.8717 116.4028 515.6891 97.90838 517.1891 97.89357 517.3716 116.388ZM516.4391 97.90097 511.4788 101.9501 516.3799 91.90127 521.4783 101.8514Z"/>
<path transform="matrix(1,0,0,-1,0,540)" d="M517.1298 68.88776 517.2986 55.06921 515.7987 55.05089 515.6299 68.86944ZM516.5486 55.06005 521.4994 59.12081 516.6219 49.06049 511.5001 58.99869Z"/>
<path transform="matrix(1,0,0,-1,0,540)" d="M517.6965 453.8435V452.6737H62.20019L62.95019 453.4237V29.67293L62.20019 30.42293H437.0054V28.92293H61.45019V454.1737H516.9465L516.1965 453.4237V453.8435ZM437.0057 29.67293 433.0057 34.67293 443.0057 29.67293 433.0057 24.67293Z"/>
<path transform="matrix(1,0,0,-1,0,540)" d="M469.7641 175.5536C469.7641 172.6866 493.5865 170.3625 522.973 170.3625 552.3595 170.3625 576.1819 172.6866 576.1819 175.5536V144.4072C576.1819 141.5402 552.3595 139.216 522.973 139.216 493.5865 139.216 469.7641 141.5402 469.7641 144.4072Z" fill="#ffffff" fill-rule="evenodd"/>
<path transform="matrix(1,0,0,-1,0,540)" d="M469.7641 175.5536C469.7641 178.4206 493.5865 180.7447 522.973 180.7447 552.3595 180.7447 576.1819 178.4206 576.1819 175.5536 576.1819 172.6866 552.3595 170.3625 522.973 170.3625 493.5865 170.3625 469.7641 172.6866 469.7641 175.5536Z" fill="#ffffff" fill-rule="evenodd"/>
<path transform="matrix(.00007874016,0,0,.00007874016,469.7641,359.2553)" stroke-width="12700" stroke-linecap="butt" stroke-miterlimit="8" stroke-linejoin="miter" fill="none" stroke="#2f528f" d="M1351507 65927.36C1351507 102338 1048962 131854.7 675753.5 131854.7 302545.1 131854.7 0 102338 0 65927.36 0 29516.68 302545.1 0 675753.5 0 1048962 0 1351507 29516.68 1351507 65927.36V461487.1C1351507 497897.8 1048962 527414.5 675753.5 527414.5 302545.1 527414.5 0 497897.8 0 461487.1V65927.36"/>
<text xml:space="preserve" transform="matrix(.24 0 -0 .24 477.473 927.36)" font-size="50" font-family="ArialMT"><tspan y="-2250" x="0 10.935001 38.540006 52.605009 80.210018 96.875019 138.54003 166.14502 193.75002 204.68503 232.29003 246.35503 273.96003 288.02503 298.96003 323.96003 351.565">intermediate.json</tspan></text>
<path transform="matrix(1,0,0,-1,0,540)" d="M472.8611 385.0996C472.8611 382.2326 496.7154 379.9085 526.1411 379.9085 555.5668 379.9085 579.4211 382.2326 579.4211 385.0996V353.9531C579.4211 351.0862 555.5668 348.762 526.1411 348.762 496.7154 348.762 472.8611 351.0862 472.8611 353.9531Z" fill="#ffffff" fill-rule="evenodd"/>
<path transform="matrix(1,0,0,-1,0,540)" d="M472.8611 385.0996C472.8611 387.9665 496.7154 390.2906 526.1411 390.2906 555.5668 390.2906 579.4211 387.9665 579.4211 385.0996 579.4211 382.2326 555.5668 379.9085 526.1411 379.9085 496.7154 379.9085 472.8611 382.2326 472.8611 385.0996Z" fill="#ffffff" fill-rule="evenodd"/>
<path transform="matrix(.00007874016,0,0,.00007874016,472.8611,149.70941)" stroke-width="12700" stroke-linecap="butt" stroke-miterlimit="8" stroke-linejoin="miter" fill="none" stroke="#2f528f" d="M1353312 65926.63C1353312 102336.9 1050363 131853.3 676656 131853.3 302949.2 131853.3 0 102336.9 0 65926.63 0 29516.36 302949.2 0 676656 0 1050363 0 1353312 29516.36 1353312 65926.63V461486.4C1353312 497896.7 1050363 527413 676656 527413 302949.2 527413 0 497896.7 0 461486.4V65926.63"/>
<text xml:space="preserve" transform="matrix(.24 0 -0 .24 489.2661 717.83999)" font-size="50" font-family="ArialMT"><tspan y="-2250" x="0 25 35.935 50.000005 77.605 105.21001 132.815 160.42 174.485 202.09 216.15499 227.09 252.09 279.695">site_beta.json</tspan></text>
<path transform="matrix(1,0,0,-1,0,540)" d="M334.5695 292.4842H386.8409V243.4704H334.5695Z" fill="#ffffff"/>
<path transform="matrix(1,0,0,-1,0,540)" d="M386.8409 292.4842 403.1788 308.8221V259.8083L386.8409 243.4704Z" fill="#cdcdcd" fill-rule="evenodd"/>
<path transform="matrix(1,0,0,-1,0,540)" d="M334.5695 292.4842 350.9074 308.8221H403.1788L386.8409 292.4842Z" fill="#ffffff" fill-rule="evenodd"/>
<path transform="matrix(.00007874016,0,0,.00007874016,334.5695,231.17789)" stroke-width="12700" stroke-linecap="butt" stroke-miterlimit="8" stroke-linejoin="miter" fill="none" stroke="#2f528f" d="M0 207492 207491.9 0H871339V622475L663847.1 829967H0ZM0 207492H663847.1L871339 0M663847.1 207492V829967"/>
<text xml:space="preserve" transform="matrix(.24 0 -0 .24 346.4551 809.52)" font-size="50" font-family="ArialMT"><tspan y="-2250" x="0 27.605004 55.210008 80.21001 107.81501 118.75001">Local </tspan></text>
<text xml:space="preserve" transform="matrix(.24 0 -0 .24 350.3901 823.68)" font-size="50" font-family="ArialMT"><tspan y="-2250" x="0 33.335004 44.270006 58.355009">Site</tspan></text>
<path transform="matrix(1,0,0,-1,0,540)" d="M483.8946 291.4379H536.1661V242.4241H483.8946Z" fill="#ffffff"/>
<path transform="matrix(1,0,0,-1,0,540)" d="M536.1661 291.4379 552.504 307.7758V258.7621L536.1661 242.4241Z" fill="#cdcdcd" fill-rule="evenodd"/>
<path transform="matrix(1,0,0,-1,0,540)" d="M483.8946 291.4379 500.2326 307.7758H552.504L536.1661 291.4379Z" fill="#ffffff" fill-rule="evenodd"/>
<path transform="matrix(.00007874016,0,0,.00007874016,483.8946,232.22422)" stroke-width="12700" stroke-linecap="butt" stroke-miterlimit="8" stroke-linejoin="miter" fill="none" stroke="#2f528f" d="M0 207492 207491.9 0H871339V622475L663847.1 829967H0ZM0 207492H663847.1L871339 0M663847.1 207492V829967"/>
<text xml:space="preserve" transform="matrix(.24 0 -0 .24 494.7178 817.92007)" font-size="50" font-family="ArialMT"><tspan y="-2250" x="0 33.335004 44.270006 58.355009 85.94002 100.02502">Site 2</tspan></text>
<path transform="matrix(1,0,0,-1,0,540)" d="M629.571 292.4843H681.8424V243.4705H629.571Z" fill="#ffffff"/>
<path transform="matrix(1,0,0,-1,0,540)" d="M681.8424 292.4843 698.1804 308.8222V259.8084L681.8424 243.4705Z" fill="#cdcdcd" fill-rule="evenodd"/>
<path transform="matrix(1,0,0,-1,0,540)" d="M629.571 292.4843 645.909 308.8222H698.1804L681.8424 292.4843Z" fill="#ffffff" fill-rule="evenodd"/>
<path transform="matrix(.00007874016,0,0,.00007874016,629.571,231.1778)" stroke-width="12700" stroke-linecap="butt" stroke-miterlimit="8" stroke-linejoin="miter" fill="none" stroke="#2f528f" d="M0 207492 207491.9 0H871339V622475L663847.1 829967H0ZM0 207492H663847.1L871339 0M663847.1 207492V829967"/>
<text xml:space="preserve" transform="matrix(.24 0 -0 .24 639.7067 816.72)" font-size="50" font-family="ArialMT"><tspan y="-2250" x="0 33.335004 44.270006 58.355009 85.94002 100.02502">Site K</tspan></text>
<text xml:space="preserve" transform="matrix(.24 0 -0 .24 589.2192 803.04006)" font-size="75" font-family="Calibri"><tspan y="-2250" x="0">&#x2026;</tspan></text>
<path transform="matrix(1,0,0,-1,0,540)" d="M376.1681 308.8221V310.5721H377.9181V308.8221ZM376.1681 312.3221V314.0721H377.9181V312.3221ZM376.1681 315.8221V317.5721H377.9181V315.8221ZM376.1681 319.3221V321.0721H377.9181V319.3221ZM376.1681 322.8221V324.5721H377.9181V322.8221ZM376.1681 326.3221V328.0721H377.9181V326.3221ZM376.1681 329.8221V331.5721H377.9181V329.8221ZM376.1681 333.3221V335.0721H377.9181V333.3221ZM376.1681 336.8221V338.5721H377.9181V336.8221ZM376.1681 340.3221V342.0721H377.9181V340.3221ZM376.1681 343.8221V345.5721H377.9181V343.8221ZM376.1681 347.3221V349.0721H377.9181V347.3221ZM376.1681 350.8221V352.5721H377.9181V350.8221ZM376.1681 354.3221V356.0721H377.9181V354.3221ZM376.1681 357.8221V359.5721H377.9181V357.8221ZM376.1681 361.3221V363.0721H377.9181V361.3221ZM376.1681 364.8221V366.6715H377.8187V364.9215H377.0431L377.9181 365.7965V364.8221ZM379.5687 366.6715H381.3187V364.9215H379.5687ZM383.0687 366.6715H384.8187V364.9215H383.0687ZM386.5687 366.6715H388.3187V364.9215H386.5687ZM390.0687 366.6715H391.8187V364.9215H390.0687ZM393.5687 366.6715H395.3187V364.9215H393.5687ZM397.0687 366.6715H398.8187V364.9215H397.0687ZM400.5687 366.6715H402.3187V364.9215H400.5687ZM404.0687 366.6715H405.8187V364.9215H404.0687ZM407.5687 366.6715H409.3187V364.9215H407.5687ZM411.0687 366.6715H412.8187V364.9215H411.0687ZM414.5687 366.6715H416.3187V364.9215H414.5687ZM418.0687 366.6715H419.8187V364.9215H418.0687ZM421.5687 366.6715H423.3187V364.9215H421.5687ZM425.0687 366.6715H426.8187V364.9215H425.0687ZM428.5687 366.6715H430.3187V364.9215H428.5687ZM432.0687 366.6715H433.8187V364.9215H432.0687ZM435.5687 366.6715H437.3187V364.9215H435.5687ZM439.0687 366.6715H440.8187V364.9215H439.0687ZM442.5687 366.6715H444.3187V364.9215H442.5687ZM446.0687 366.6715H447.8187V364.9215H446.0687ZM449.5687 366.6715H451.3187V364.9215H449.5687ZM453.0687 366.6715H454.8187V364.9215H453.0687ZM456.5687 366.6715H458.3187V364.9215H456.5687ZM460.0687 366.6715H461.8187V364.9215H460.0687ZM463.5687 366.6715H465.3187V364.9215H463.5687ZM467.0687 366.6715H467.861V364.9215H467.0687ZM466.861 367.7965 472.861 365.7965 466.861 363.7965Z" fill="#2f5597"/>
<path transform="matrix(1,0,0,-1,0,540)" d="M525.2661 348.7621V347.0121H527.0161V348.7621ZM525.2661 345.2621V343.5121H527.0161V345.2621ZM525.2661 341.7621V340.0121H527.0161V341.7621ZM525.2661 338.2621V336.5121H527.0161V338.2621ZM525.2661 334.7621V333.0121H527.0161V334.7621ZM525.2661 331.2621V329.5121H527.0161V331.2621ZM525.4933 327.9893V326.2393H527.2433V327.9893ZM525.4933 324.4893V322.7393H527.2433V324.4893ZM525.4933 320.9893V319.2393H527.2433V320.9893ZM525.4933 317.4893V315.7393H527.2433V317.4893ZM525.4933 313.9893V312.7759H527.2433V313.9893ZM524.3683 313.7759 526.3683 307.7759 528.3683 313.7759Z" fill="#2f5597"/>
<path transform="matrix(1,0,0,-1,0,540)" d="M526.1411 327.4745H527.8911V325.7245H526.1411ZM529.6411 327.4745H531.3911V325.7245H529.6411ZM533.1411 327.4745H534.8911V325.7245H533.1411ZM536.6411 327.4745H538.3911V325.7245H536.6411ZM540.1411 327.4745H541.8911V325.7245H540.1411ZM543.6411 327.4745H545.3911V325.7245H543.6411ZM547.1411 327.4745H548.8911V325.7245H547.1411ZM550.6411 327.4745H552.3911V325.7245H550.6411ZM554.1411 327.4745H555.8911V325.7245H554.1411ZM557.6411 327.4745H559.3911V325.7245H557.6411ZM561.1411 327.4745H562.8911V325.7245H561.1411ZM564.6411 327.4745H566.3911V325.7245H564.6411ZM568.1411 327.4745H569.8911V325.7245H568.1411ZM571.6411 327.4745H573.3911V325.7245H571.6411ZM575.1411 327.4745H576.8911V325.7245H575.1411ZM578.6411 327.4745H580.3911V325.7245H578.6411ZM582.1411 327.4745H583.8911V325.7245H582.1411ZM585.6411 327.4745H587.3911V325.7245H585.6411ZM589.1411 327.4745H590.8911V325.7245H589.1411ZM592.6411 327.4745H594.3911V325.7245H592.6411ZM596.1411 327.4745H597.8911V325.7245H596.1411ZM599.6411 327.4745H601.3911V325.7245H599.6411ZM603.1411 327.4745H604.8911V325.7245H603.1411ZM606.6411 327.4745H608.3911V325.7245H606.6411ZM610.1411 327.4745H611.8911V325.7245H610.1411ZM613.6411 327.4745H615.3911V325.7245H613.6411ZM617.1411 327.4745H618.8911V325.7245H617.1411ZM620.6411 327.4745H622.3911V325.7245H620.6411ZM624.1411 327.4745H625.8911V325.7245H624.1411ZM627.6411 327.4745H629.3911V325.7245H627.6411ZM631.1411 327.4745H632.8911V325.7245H631.1411ZM634.6411 327.4745H636.3911V325.7245H634.6411ZM638.1411 327.4745H639.8911V325.7245H638.1411ZM641.6411 327.4745H643.3911V325.7245H641.6411ZM645.1411 327.4745H646.8911V325.7245H645.1411ZM648.6411 327.4745H650.3911V325.7245H648.6411ZM652.1411 327.4745H653.8911V325.7245H652.1411ZM655.6411 327.4745H657.3911V325.7245H655.6411ZM659.1411 327.4745H660.8911V325.7245H659.1411ZM662.6411 327.4745H664.3911V325.7245H662.6411ZM666.1411 327.4745H667.8911V325.7245H666.1411ZM669.6411 327.4745H671.3911V325.7245H669.6411ZM672.9196 325.503V323.753H671.1696V325.503ZM672.9196 322.003V320.253H671.1696V322.003ZM672.9196 318.503V316.753H671.1696V318.503ZM672.9196 315.003V313.8222H671.1696V315.003ZM674.0446 314.8222 672.0446 308.8222 670.0446 314.8222Z" fill="#2f5597"/>
<path transform="matrix(1,0,0,-1,0,540)" d="M469.7641 159.1053H468.0141V160.8553H469.7641ZM466.2641 159.1053H464.5141V160.8553H466.2641ZM462.7641 159.1053H461.0141V160.8553H462.7641ZM459.2641 159.1053H457.5141V160.8553H459.2641ZM455.7641 159.1053H454.0141V160.8553H455.7641ZM452.2641 159.1053H450.5141V160.8553H452.2641ZM448.7641 159.1053H447.0141V160.8553H448.7641ZM445.2641 159.1053H443.5141V160.8553H445.2641ZM441.7641 159.1053H440.0141V160.8553H441.7641ZM438.2641 159.1053H436.5141V160.8553H438.2641ZM434.7641 159.1053H433.0141V160.8553H434.7641ZM431.2641 159.1053H429.5141V160.8553H431.2641ZM427.7641 159.1053H426.0141V160.8553H427.7641ZM424.2641 159.1053H422.5141V160.8553H424.2641ZM420.7641 159.1053H419.0141V160.8553H420.7641ZM417.2641 159.1053H415.5141V160.8553H417.2641ZM413.7641 159.1053H412.0141V160.8553H413.7641ZM410.2641 159.1053H408.5141V160.8553H410.2641ZM406.7641 159.1053H405.0141V160.8553H406.7641ZM403.2641 159.1053H401.5141V160.8553H403.2641ZM399.7641 159.1053H398.0141V160.8553H399.7641ZM396.2641 159.1053H394.5141V160.8553H396.2641ZM392.7641 159.1053H391.0141V160.8553H392.7641ZM389.2641 159.1053H387.5141V160.8553H389.2641ZM385.7641 159.1053H384.0141V160.8553H385.7641ZM382.2641 159.1053H380.5141V160.8553H382.2641ZM378.7641 159.1053H377.0141V160.8553H378.7641ZM375.2641 159.1053H373.5141V160.8553H375.2641ZM371.7641 159.1053H370.0141V160.8553H371.7641ZM368.2641 159.1053H366.5141V160.8553H368.2641ZM364.7641 159.1053H363.0141V160.8553H364.7641ZM361.2641 159.1053H359.8302V161.1714H361.5802V159.9803L360.7052 160.8553H361.2641ZM359.8302 162.9214V164.6714H361.5802V162.9214ZM359.8302 166.4214V168.1714H361.5802V166.4214ZM359.8302 169.9214V171.6714H361.5802V169.9214ZM359.8302 173.4214V175.1714H361.5802V173.4214ZM359.8302 176.9214V178.6714H361.5802V176.9214ZM359.8302 180.4214V182.1714H361.5802V180.4214ZM359.8302 183.9214V185.6714H361.5802V183.9214ZM359.8302 187.4214V189.1714H361.5802V187.4214ZM359.8302 190.9214V192.6714H361.5802V190.9214ZM359.8302 194.4214V196.1714H361.5802V194.4214ZM359.8302 197.9214V199.6714H361.5802V197.9214ZM359.8302 201.4214V203.1714H361.5802V201.4214ZM359.8302 204.9214V206.6714H361.5802V204.9214ZM359.8302 208.4214V210.1714H361.5802V208.4214ZM359.8302 211.9214V213.6714H361.5802V211.9214ZM359.8302 215.4214V217.1714H361.5802V215.4214ZM359.8302 218.9214V220.6714H361.5802V218.9214ZM359.8302 222.4214V224.1714H361.5802V222.4214ZM359.8302 225.9214V227.6714H361.5802V225.9214ZM359.8302 229.4214V231.1714H361.5802V229.4214ZM359.8302 232.9214V234.6714H361.5802V232.9214ZM359.8302 236.4214V238.1714H361.5802V236.4214ZM358.7052 237.4703 360.7052 243.4703 362.7052 237.4703Z" fill="#2f5597"/>
<text xml:space="preserve" transform="matrix(.24 0 -0 .24 307.5343 752.64)" font-size="45.83333" font-family="ArialMT"><tspan y="-2250" x="0 25.52 40.622087 53.12084 78.64084 104.16084 127.07751 152.5975 163.01543">1) Local </tspan></text>
<text xml:space="preserve" transform="matrix(.24 0 -0 .24 307.5343 765.6)" font-size="45.83333" font-family="ArialMT"><tspan y="-2250" x="0 25.52 48.436666 60.935415 71.35333 109.372089 134.89209 147.39084 157.80876 183.32877 208.84877">estimation </tspan></text>
<text xml:space="preserve" transform="matrix(.24 0 -0 .24 361.3543 763.2)" font-size="45.83333" font-family="CambriaMath"><tspan y="-2250" x="0">!</tspan></text>
<text xml:space="preserve" transform="matrix(.24 0 -0 .24 360.6593 765.6)" font-size="45.83333" font-family="CambriaMath"><tspan y="-2250" x="0">&#x03b2;</tspan></text>
<text xml:space="preserve" transform="matrix(.24 0 -0 .24 483.7934 855.12)" font-size="45.83333" font-family="CambriaMath"><tspan y="-2250" x="0">&#x2207;</tspan></text>
<text xml:space="preserve" transform="matrix(.24 0 -0 .24 490.2934 855.12)" font-size="45.83333" font-family="CambriaMath"><tspan y="-2250" x="0">&#x1d43f;</tspan></text>
<text xml:space="preserve" transform="matrix(.24 0 -0 .24 496.1684 857.28)" font-size="33.33333" font-family="CambriaMath"><tspan y="-2250" x="0">!</tspan></text>
<path transform="matrix(1,0,0,-1,0,540)" d="M512.7968 234.6439C513.914 234.3503 514.7752 233.5894 515.3803 232.3612 515.9855 231.133 516.288 229.6793 516.288 227.9999 516.288 226.3205 515.9855 224.8668 515.3803 223.6386 514.7752 222.4104 513.914 221.6495 512.7968 221.3559L512.6625 221.7963C513.5291 222.1221 514.1853 222.832 514.6311 223.9259 515.0769 225.0198 515.2998 226.376 515.2998 227.9945 515.2998 229.6166 515.0769 230.9755 514.6311 232.0712 514.1853 233.1669 513.5291 233.8777 512.6625 234.2035ZM505.7064 234.6439 505.8407 234.2035C504.9742 233.8777 504.318 233.1669 503.8722 232.0712 503.4264 230.9755 503.2035 229.6166 503.2035 227.9945 503.2035 226.376 503.4264 225.0198 503.8722 223.9259 504.318 222.832 504.9742 222.1221 505.8407 221.7963L505.7064 221.3559C504.5892 221.6495 503.7281 222.4104 503.1229 223.6386 502.5178 224.8668 502.2152 226.3205 502.2152 227.9999 502.2152 229.6793 502.5178 231.133 503.1229 232.3612 503.7281 233.5894 504.5892 234.3503 505.7064 234.6439Z" fill-rule="evenodd"/>
<text xml:space="preserve" transform="matrix(.24 0 -0 .24 506.8834 852.72)" font-size="45.83333" font-family="CambriaMath"><tspan y="-2250" x="0">!</tspan></text>
<text xml:space="preserve" transform="matrix(.24 0 -0 .24 506.1884 855.12)" font-size="45.83333" font-family="CambriaMath"><tspan y="-2250" x="0">&#x03b2;</tspan></text>
<text xml:space="preserve" transform="matrix(.24 0 -0 .24 517.2534 855.12)" font-size="45.83333" font-family="CambriaMath"><tspan y="-2250" x="0">,</tspan></text>
<text xml:space="preserve" transform="matrix(.24 0 -0 .24 521.3384 855.12)" font-size="45.83333" font-family="CambriaMath"><tspan y="-2250" x="0">&#x2207;</tspan></text>
<text xml:space="preserve" transform="matrix(.24 0 -0 .24 527.8384 851.04006)" font-size="33.33333" font-family="CambriaMath"><tspan y="-2250" x="0">!</tspan></text>
<text xml:space="preserve" transform="matrix(.24 0 -0 .24 532.9184 855.12)" font-size="45.83333" font-family="CambriaMath"><tspan y="-2250" x="0">&#x1d43f;</tspan></text>
<text xml:space="preserve" transform="matrix(.24 0 -0 .24 538.7934 857.28)" font-size="33.33333" font-family="CambriaMath"><tspan y="-2250" x="0">!</tspan></text>
<path transform="matrix(1,0,0,-1,0,540)" d="M555.4218 234.6439C556.539 234.3503 557.4002 233.5894 558.0053 232.3612 558.6105 231.133 558.913 229.6793 558.913 227.9999 558.913 226.3205 558.6105 224.8668 558.0053 223.6386 557.4002 222.4104 556.539 221.6495 555.4218 221.3559L555.2875 221.7963C556.1541 222.1221 556.8102 222.832 557.2561 223.9259 557.7019 225.0198 557.9248 226.376 557.9248 227.9945 557.9248 229.6166 557.7019 230.9755 557.2561 232.0712 556.8102 233.1669 556.1541 233.8777 555.2875 234.2035ZM548.3314 234.6439 548.4657 234.2035C547.5992 233.8777 546.943 233.1669 546.4972 232.0712 546.0514 230.9755 545.8285 229.6166 545.8285 227.9945 545.8285 226.376 546.0514 225.0198 546.4972 223.9259 546.943 222.832 547.5992 222.1221 548.4657 221.7963L548.3314 221.3559C547.2142 221.6495 546.3531 222.4104 545.7479 223.6386 545.1428 224.8668 544.8402 226.3205 544.8402 227.9999 544.8402 229.6793 545.1428 231.133 545.7479 232.3612 546.3531 233.5894 547.2142 234.3503 548.3314 234.6439Z" fill-rule="evenodd"/>
<text xml:space="preserve" transform="matrix(.24 0 -0 .24 549.5084 852.72)" font-size="45.83333" font-family="CambriaMath"><tspan y="-2250" x="0">!</tspan></text>
<text xml:space="preserve" transform="matrix(.24 0 -0 .24 548.8134 855.12)" font-size="45.83333" font-family="CambriaMath"><tspan y="-2250" x="0">&#x03b2;</tspan></text>
<text xml:space="preserve" transform="matrix(.24 0 -0 .24 624.7901 852.95999)" font-size="45.83333" font-family="CambriaMath"><tspan y="-2250" x="0">&#x2207;</tspan></text>
<text xml:space="preserve" transform="matrix(.24 0 -0 .24 631.29 852.95999)" font-size="45.83333" font-family="CambriaMath"><tspan y="-2250" x="0">&#x1d43f;</tspan></text>
<text xml:space="preserve" transform="matrix(.24 0 -0 .24 637.1651 855.12)" font-size="33.33333" font-family="CambriaMath"><tspan y="-2250" x="0">"</tspan></text>
<path transform="matrix(1,0,0,-1,0,540)" d="M655.1585 236.9235C656.2756 236.6299 657.1368 235.8689 657.742 234.6408 658.3471 233.4126 658.6497 231.9588 658.6497 230.2794 658.6497 228.6001 658.3471 227.1463 657.742 225.9181 657.1368 224.6899 656.2756 223.929 655.1585 223.6354L655.0242 224.0758C655.8907 224.4017 656.5469 225.1115 656.9927 226.2055 657.4385 227.2994 657.6614 228.6556 657.6614 230.2741 657.6614 231.8961 657.4385 233.255 656.9927 234.3507 656.5469 235.4464 655.8907 236.1572 655.0242 236.483ZM648.0681 236.9235 648.2023 236.483C647.3358 236.1572 646.6796 235.4464 646.2338 234.3507 645.788 233.255 645.5651 231.8961 645.5651 230.2741 645.5651 228.6556 645.788 227.2994 646.2338 226.2055 646.6796 225.1115 647.3358 224.4017 648.2023 224.0758L648.0681 223.6354C646.9509 223.929 646.0897 224.6899 645.4846 225.9181 644.8794 227.1463 644.5769 228.6001 644.5769 230.2794 644.5769 231.9588 644.8794 233.4126 645.4846 234.6408 646.0897 235.8689 646.9509 236.6299 648.0681 236.9235Z" fill="#836967" fill-rule="evenodd"/>
<text fill="#836967" xml:space="preserve" transform="matrix(.24 0 -0 .24 649.245 850.32)" font-size="45.83333" font-family="CambriaMath"><tspan y="-2250" x="0">!</tspan></text>
<text xml:space="preserve" transform="matrix(.24 0 -0 .24 648.5501 852.95999)" font-size="45.83333" font-family="CambriaMath"><tspan y="-2250" x="0">&#x03b2;</tspan></text>
<text xml:space="preserve" transform="matrix(.24 0 -0 .24 659.6151 852.95999)" font-size="45.83333" font-family="CambriaMath"><tspan y="-2250" x="0">,</tspan></text>
<text xml:space="preserve" transform="matrix(.24 0 -0 .24 663.7001 852.95999)" font-size="45.83333" font-family="CambriaMath"><tspan y="-2250" x="0">&#x2207;</tspan></text>
<text xml:space="preserve" transform="matrix(.24 0 -0 .24 670.2 848.88)" font-size="33.33333" font-family="CambriaMath"><tspan y="-2250" x="0">!</tspan></text>
<text xml:space="preserve" transform="matrix(.24 0 -0 .24 675.2801 852.95999)" font-size="45.83333" font-family="CambriaMath"><tspan y="-2250" x="0">&#x1d43f;</tspan></text>
<text xml:space="preserve" transform="matrix(.24 0 -0 .24 681.1551 855.12)" font-size="33.33333" font-family="CambriaMath"><tspan y="-2250" x="0">"</tspan></text>
<path transform="matrix(1,0,0,-1,0,540)" d="M699.1485 236.9235C700.2656 236.6299 701.1268 235.8689 701.732 234.6408 702.3371 233.4126 702.6397 231.9588 702.6397 230.2794 702.6397 228.6001 702.3371 227.1463 701.732 225.9181 701.1268 224.6899 700.2656 223.929 699.1485 223.6354L699.0142 224.0758C699.8807 224.4017 700.5369 225.1115 700.9827 226.2055 701.4285 227.2994 701.6514 228.6556 701.6514 230.2741 701.6514 231.8961 701.4285 233.255 700.9827 234.3507 700.5369 235.4464 699.8807 236.1572 699.0142 236.483ZM692.0581 236.9235 692.1923 236.483C691.3258 236.1572 690.6696 235.4464 690.2238 234.3507 689.778 233.255 689.5551 231.8961 689.5551 230.2741 689.5551 228.6556 689.778 227.2994 690.2238 226.2055 690.6696 225.1115 691.3258 224.4017 692.1923 224.0758L692.0581 223.6354C690.9409 223.929 690.0797 224.6899 689.4746 225.9181 688.8694 227.1463 688.5669 228.6001 688.5669 230.2794 688.5669 231.9588 688.8694 233.4126 689.4746 234.6408 690.0797 235.8689 690.9409 236.6299 692.0581 236.9235Z" fill="#836967" fill-rule="evenodd"/>
<text fill="#836967" xml:space="preserve" transform="matrix(.24 0 -0 .24 693.2351 850.32)" font-size="45.83333" font-family="CambriaMath"><tspan y="-2250" x="0">!</tspan></text>
<text xml:space="preserve" transform="matrix(.24 0 -0 .24 692.5401 852.95999)" font-size="45.83333" font-family="CambriaMath"><tspan y="-2250" x="0">&#x03b2;</tspan></text>
<path transform="matrix(1,0,0,-1,0,540)" d="M662.1097 219.4215V217.6715H660.3597V219.4215ZM662.1097 215.9215V214.1715H660.3597V215.9215ZM662.1097 212.4215V210.6715H660.3597V212.4215ZM662.1097 208.9215V207.1715H660.3597V208.9215ZM662.1097 205.4215V203.6715H660.3597V205.4215ZM662.1097 201.9215V200.1715H660.3597V201.9215ZM662.1097 198.4215V196.6715H660.3597V198.4215ZM662.1097 194.9215V193.1715H660.3597V194.9215ZM662.1097 191.4215V189.6715H660.3597V191.4215ZM662.1097 187.9215V186.1715H660.3597V187.9215ZM662.1097 184.4215V182.6715H660.3597V184.4215ZM662.1097 180.9215V179.1715H660.3597V180.9215ZM662.1097 177.4215V175.6715H660.3597V177.4215ZM662.1097 173.9215V172.1715H660.3597V173.9215ZM662.1097 170.4215V168.6715H660.3597V170.4215ZM662.1097 166.9215V165.1715H660.3597V166.9215ZM662.1097 163.4215V161.6715H660.3597V163.4215ZM661.1758 159.1054H659.4258V160.8554H661.1758ZM657.6758 159.1054H655.9258V160.8554H657.6758ZM654.1758 159.1054H652.4258V160.8554H654.1758ZM650.6758 159.1054H648.9258V160.8554H650.6758ZM647.1758 159.1054H645.4258V160.8554H647.1758ZM643.6758 159.1054H641.9258V160.8554H643.6758ZM640.1758 159.1054H638.4258V160.8554H640.1758ZM636.6758 159.1054H634.9258V160.8554H636.6758ZM633.1758 159.1054H631.4258V160.8554H633.1758ZM629.6758 159.1054H627.9258V160.8554H629.6758ZM626.1758 159.1054H624.4258V160.8554H626.1758ZM622.6758 159.1054H620.9258V160.8554H622.6758ZM619.1758 159.1054H617.4258V160.8554H619.1758ZM615.6758 159.1054H613.9258V160.8554H615.6758ZM612.1758 159.1054H610.4258V160.8554H612.1758ZM608.6758 159.1054H606.9258V160.8554H608.6758ZM605.1758 159.1054H603.4258V160.8554H605.1758ZM601.6758 159.1054H599.9258V160.8554H601.6758ZM598.1758 159.1054H596.4258V160.8554H598.1758ZM594.6758 159.1054H592.9258V160.8554H594.6758ZM591.1758 159.1054H589.4258V160.8554H591.1758ZM587.6758 159.1054H585.9258V160.8554H587.6758ZM584.1758 159.1054H582.4258V160.8554H584.1758ZM582.182 157.9804 576.182 159.9804 582.182 161.9804Z" fill="#2f5597"/>
<path transform="matrix(1,0,0,-1,0,540)" d="M522.772 217.1678 522.8237 215.4186 521.0745 215.3669 521.0228 217.1161ZM522.8754 213.6693 522.9271 211.9201 521.1779 211.8684 521.1262 213.6176ZM522.9788 210.1709 523.0305 208.4216 521.2813 208.3699 521.2296 210.1192ZM523.0822 206.6724 523.1339 204.9232 521.3846 204.8715 521.3329 206.6207ZM523.1856 203.1739 523.2373 201.4247 521.488 201.373 521.4363 203.1222ZM523.289 199.6755 523.3407 197.9262 521.5914 197.8745 521.5397 199.6238ZM523.3924 196.177 523.4441 194.4277 521.6948 194.3761 521.6431 196.1253ZM523.4958 192.6785 523.5475 190.9293 521.7982 190.8776 521.7465 192.6268ZM523.5991 189.18 523.6508 187.4308 521.9016 187.3791 521.8499 189.1283ZM524.7949 186.8012 522.9731 180.7447 520.7967 186.683Z" fill="#4472c4"/>
<text xml:space="preserve" transform="matrix(.24 0 -0 .24 527.3736 881.04006)" font-size="45.83333" font-family="ArialMT"><tspan y="-2250" x="0 25.52 40.622087 53.12084 65.61958 91.13959 103.638339 129.15834 144.26042 182.27918 207.79918 233.31919 243.7371 269.25709 281.75584 307.27583 319.77458 334.87666 360.39665 383.3133 408.83329 419.2512 431.74995 454.6666">3) Intermediate results </tspan></text>
<text xml:space="preserve" transform="matrix(.24 0 -0 .24 527.3736 894)" font-size="45.83333" font-family="ArialMT"><tspan y="-2250" x="0 22.916665 48.436666 58.85458 81.77124 107.291248 117.70917 143.22917 155.72792 181.24793">calculated</tspan></text>
<text xml:space="preserve" transform="matrix(.24 0 -0 .24 529.0782 751.2)" font-size="45.83333" font-family="ArialMT"><tspan y="-2250" x="0 25.52 40.622087 53.12084 78.64084 104.16084 127.07751 152.5975 163.01543 175.51418 201.03418 223.95084 236.44959 246.86751 284.88624 310.40623 322.90498 333.32289 358.84288 384.36286 396.8616 409.36036 424.46244 449.98243 475.5024 498.41908 510.91783 536.4378 551.5399 566.642 592.16207 617.68209 630.1808 642.6795 668.1995 680.69827 695.80038 721.3204 759.3391 784.85916 797.35787 822.87789 835.3766 858.2933 868.7112 881.2099 906.7299">2) Local estimation transferred to remote sites</tspan></text>
<text xml:space="preserve" transform="matrix(.24 0 -0 .24 364.7572 890.16006)" font-size="45.83333" font-family="ArialMT"><tspan y="-2250" x="0 25.52 40.635835 53.139169 65.6425 91.162509 103.66584 129.18584 144.30167 182.33417 207.85417 233.37418 243.81502 269.33503 281.83836 307.35835">4) Intermediate </tspan></text>
<text xml:space="preserve" transform="matrix(.24 0 -0 .24 364.7572 903.12)" font-size="45.83333" font-family="ArialMT"><tspan y="-2250" x="0 15.102082 40.62208 63.538747 89.05875 99.47667 111.97542 134.89209 147.39084 159.88959 174.99167 200.51168 226.03168 248.94834 261.44709 286.96708 302.06916 317.17124 342.69123 368.2112">results transferred </tspan></text>
<text xml:space="preserve" transform="matrix(.24 0 -0 .24 364.7572 916.32)" font-size="45.83333" font-family="ArialMT"><tspan y="-2250" x="0 12.49875 38.01875 50.517499 60.935415 86.455417 109.37208 134.89208 145.31 157.80875 180.7254 191.14333 203.64208">to local site</tspan></text>
<path transform="matrix(1,0,0,-1,0,540)" d="M515.872 504.0317 515.8717 435.0189H517.3717L517.372 504.0317ZM516.6217 435.0189 511.6217 439.0189 516.6216 429.0189 521.6217 439.0189Z"/>
</svg>
